HIERARCHY
ROOT hip
{
  OFFSET 0 0 0
  CHANNELS 6 Xposition Yposition Zposition Zrotation Yrotation Xrotation
  JOINT abdomen
  {
    OFFSET 0 20.6881 -0.73152
    CHANNELS 3 Zrotation Xrotation Yrotation
    JOINT chest
    {
      OFFSET 0 11.7043 -0.48768
      CHANNELS 3 Zrotation Xrotation Yrotation
      JOINT neck
      {
        OFFSET 0 22.1894 -2.19456
        CHANNELS 3 Zrotation Xrotation Yrotation
        JOINT head
        {
          OFFSET -0.24384 7.07133 1.2192
          CHANNELS 3 Zrotation Xrotation Yrotation
          JOINT leftEye
          {
            OFFSET 4.14528 8.04674 8.04672
            CHANNELS 3 Zrotation Xrotation Yrotation
            End Site
            {
              OFFSET 1 0 0
            }
          }
          JOINT rightEye
          {
            OFFSET -3.6576 8.04674 8.04672
            CHANNELS 3 Zrotation Xrotation Yrotation
            End Site
            {
              OFFSET 1 0 0
            }
          }
        }
      }
      JOINT rCollar
      {
        OFFSET -2.68224 19.2634 -4.8768
        CHANNELS 3 Zrotation Xrotation Yrotation
        JOINT rShldr
        {
          OFFSET -8.77824 -1.95073 1.46304
          CHANNELS 3 Zrotation Xrotation Yrotation
          JOINT rForeArm
          {
            OFFSET -28.1742 -1.7115 0.48768
            CHANNELS 3 Zrotation Xrotation Yrotation
            JOINT rHand
            {
              OFFSET -22.5879 0.773209 7.07136
              CHANNELS 3 Zrotation Xrotation Yrotation
              JOINT rThumb1
              {
                OFFSET -1.2192 -0.487915 3.41376
                CHANNELS 3 Zrotation Xrotation Yrotation
                JOINT rThumb2
                {
                  OFFSET -3.37035 -0.52449 3.41376
                  CHANNELS 3 Zrotation Xrotation Yrotation
                  End Site
                  {
                    OFFSET -1.78271 -1.18214 1.43049
                  }
                }
              }
              JOINT rIndex1
              {
                OFFSET -7.75947 0.938293 5.60832
                CHANNELS 3 Zrotation Xrotation Yrotation
                JOINT rIndex2
                {
                  OFFSET -2.54057 -0.884171 1.56538
                  CHANNELS 3 Zrotation Xrotation Yrotation
                  End Site
                  {
                    OFFSET -1.62519 -0.234802 1.16502
                  }
                }
              }
              JOINT rMid1
              {
                OFFSET -8.24714 1.18213 3.41376
                CHANNELS 3 Zrotation Xrotation Yrotation
                JOINT rMid2
                {
                  OFFSET -3.10165 -0.590103 1.0647
                  CHANNELS 3 Zrotation Xrotation Yrotation
                  End Site
                  {
                    OFFSET -2.48547 -0.328903 0.83742
                  }
                }
              }
              JOINT rRing1
              {
                OFFSET -8.82822 0.546677 1.51678
                CHANNELS 3 Zrotation Xrotation Yrotation
                JOINT rRing2
                {
                  OFFSET -2.60934 -0.819778 -0.0198488
                  CHANNELS 3 Zrotation Xrotation Yrotation
                  End Site
                  {
                    OFFSET -2.33842 -0.294052 0.168128
                  }
                }
              }
              JOINT rPinky1
              {
                OFFSET -8.27202 -0.0477905 -0.4584
                CHANNELS 3 Zrotation Xrotation Yrotation
                JOINT rPinky2
                {
                  OFFSET -1.82734 -0.647385 -0.700984
                  CHANNELS 3 Zrotation Xrotation Yrotation
                  End Site
                  {
                    OFFSET -1.69225 -0.51767 -0.607171
                  }
                }
              }
            }
          }
        }
      }
      JOINT lCollar
      {
        OFFSET 2.68224 19.2634 -4.8768
        CHANNELS 3 Zrotation Xrotation Yrotation
        JOINT lShldr
        {
          OFFSET 8.77824 -1.95073 1.46304
          CHANNELS 3 Zrotation Xrotation Yrotation
          JOINT lForeArm
          {
            OFFSET 28.1742 -1.7115 0.48768
            CHANNELS 3 Zrotation Xrotation Yrotation
            JOINT lHand
            {
              OFFSET 22.5879 0.773209 7.07136
              CHANNELS 3 Zrotation Xrotation Yrotation
              JOINT lThumb1
              {
                OFFSET 1.2192 -0.487915 3.41376
                CHANNELS 3 Zrotation Xrotation Yrotation
                JOINT lThumb2
                {
                  OFFSET 3.37035 -0.52449 3.41376
                  CHANNELS 3 Zrotation Xrotation Yrotation
                  End Site
                  {
                    OFFSET 1.78271 -1.18214 1.43049
                  }
                }
              }
              JOINT lIndex1
              {
                OFFSET 7.75947 0.938293 5.60832
                CHANNELS 3 Zrotation Xrotation Yrotation
                JOINT lIndex2
                {
                  OFFSET 2.54057 -0.884171 1.56538
                  CHANNELS 3 Zrotation Xrotation Yrotation
                  End Site
                  {
                    OFFSET 1.62519 -0.234802 1.16502
                  }
                }
              }
              JOINT lMid1
              {
                OFFSET 8.24714 1.18213 3.41376
                CHANNELS 3 Zrotation Xrotation Yrotation
                JOINT lMid2
                {
                  OFFSET 3.10165 -0.590103 1.0647
                  CHANNELS 3 Zrotation Xrotation Yrotation
                  End Site
                  {
                    OFFSET 2.48547 -0.328903 0.83742
                  }
                }
              }
              JOINT lRing1
              {
                OFFSET 8.82822 0.546677 1.51678
                CHANNELS 3 Zrotation Xrotation Yrotation
                JOINT lRing2
                {
                  OFFSET 2.60934 -0.819778 -0.0198488
                  CHANNELS 3 Zrotation Xrotation Yrotation
                  End Site
                  {
                    OFFSET 2.33842 -0.294052 0.168128
                  }
                }
              }
              JOINT lPinky1
              {
                OFFSET 8.27202 -0.0477905 -0.4584
                CHANNELS 3 Zrotation Xrotation Yrotation
                JOINT lPinky2
                {
                  OFFSET 1.82734 -0.647385 -0.700984
                  CHANNELS 3 Zrotation Xrotation Yrotation
                  End Site
                  {
                    OFFSET 1.69225 -0.51767 -0.607171
                  }
                }
              }
            }
          }
        }
      }
    }
  }
  JOINT rButtock
  {
    OFFSET -8.77824 4.35084 1.2192
    CHANNELS 3 Zrotation Xrotation Yrotation
    JOINT rThigh
    {
      OFFSET 0 -1.70687 -2.19456
      CHANNELS 3 Zrotation Xrotation Yrotation
      JOINT rShin
      {
        OFFSET 0 -36.8199 0.73152
        CHANNELS 3 Zrotation Xrotation Yrotation
        JOINT rFoot
        {
          OFFSET 0.73152 -45.1104 -5.12064
          CHANNELS 3 Zrotation Xrotation Yrotation
          End Site
          {
            OFFSET -1.1221 -3.69964 12.103
          }
        }
      }
    }
  }
  JOINT lButtock
  {
    OFFSET 8.77824 4.35084 1.2192
    CHANNELS 3 Zrotation Xrotation Yrotation
    JOINT lThigh
    {
      OFFSET 0 -1.70687 -2.19456
      CHANNELS 3 Zrotation Xrotation Yrotation
      JOINT lShin
      {
        OFFSET 0 -36.8199 0.73152
        CHANNELS 3 Zrotation Xrotation Yrotation
        JOINT lFoot
        {
          OFFSET -0.73152 -45.1104 -5.12064
          CHANNELS 3 Zrotation Xrotation Yrotation
          End Site
          {
            OFFSET 1.1221 -3.69964 12.103
          }
        }
      }
    }
  }
}
MOTION
Frames:	6
Frame Time:	0.00833333
10.2361 84.4292 -174.22 0.0 0.0 0.0 -0.937509 -0.00467891 -0.0260745 -0.258767 -0.00545768 -0.0448333 -1.37206e-14 0.0 -1.73937e-16 -4.11484e-14 3.18055e-15 -5.34234e-16 -0.0 0.0 0.0 -0.0 0.0 0.0 -6.81001e-15 -1.41712e-17 4.96962e-17 -1.428e-13 4.34841e-17 -1.39149e-15 -2.50643e-12 7.40075e-13 -3.18055e-15 -2.86689e-11 -8.0801e-13 -3.81667e-13 -6.7632e-11 -1.52362e-13 -8.17403e-13 -1.16801e-10 -2.67167e-13 -1.40342e-12 -6.76269e-11 -1.49089e-13 -8.23764e-13 7.73091 5.47488 0.417314 -6.76313e-11 -1.51871e-13 -8.14222e-13 2.90554 0.965183 0.102902 -6.7623e-11 -1.5217e-13 -8.12632e-13 10.2786 0.731801 0.0259123 -6.76357e-11 -1.54257e-13 -8.0468e-13 2.22167 -0.733487 -0.20892 -6.90659e-15 -1.3977e-17 -2.48481e-16 -1.46718e-13 6.21202e-18 -3.37934e-15 -2.5029e-12 -7.58761e-13 -3.18055e-15 -2.86667e-11 7.00964e-13 -3.65764e-13 -6.76197e-11 -1.32754e-13 -8.17403e-13 -1.16772e-10 -2.35361e-13 -1.40183e-12 -6.76269e-11 -1.28812e-13 -8.0468e-13 -7.73091 5.47488 -0.417314 -6.76205e-11 -1.3249e-13 -8.17403e-13 -2.90554 0.965183 -0.102902 -6.76286e-11 -1.32192e-13 -8.13427e-13 -10.2786 0.731801 -0.0259123 -6.76144e-11 -1.31595e-13 -8.17403e-13 -2.22167 -0.733487 0.20892 -2.03217e-16 0.0 -3.88251e-19 -0.229245 -1.95204 -0.0134913 -0.00909801 -2.01823 -0.0753446 -0.480976 3.96951 0.135139 2.03217e-16 0.0 3.88251e-19 -1.1984 -5.3633 0.104961 4.31253e-05 4.16077 -0.0211944 0.495349 1.2019 -0.0808251
12.1456 83.8041 -173.932 3.0991 11.6732 -1.6069 -2.83144 6.10291 -0.975596 1.01419 -2.68164 -0.31214 0.363718 2.53804 1.62907 -2.00162 3.35522 3.40006 -0.0 0.0 0.0 -0.0 0.0 0.0 5.80496e-15 -5.43286e-14 1.52924e-13 20.0897 0.218812 -2.10927 -5.82133 -3.0673 8.58801 0.000322532 -0.418042 -0.0587474 -6.16495e-11 1.15903e-09 1.17874e-09 -1.07186e-10 2.01019e-09 2.04243e-09 -6.16444e-11 1.15904e-09 1.17873e-09 7.73091 5.47488 0.417314 -6.16488e-11 1.15903e-09 1.17874e-09 2.90554 0.965183 0.102902 -6.16408e-11 1.15903e-09 1.17874e-09 10.2786 0.731801 0.0259123 -6.16532e-11 1.15903e-09 1.17874e-09 2.22167 -0.733487 -0.20892 5.62941e-15 -5.43283e-14 1.5264e-13 -18.9171 4.71938 -3.41638 5.29352 -2.66628 -7.96504 -0.083193 6.57054 -0.90317 -1.30811e-09 -2.78325e-09 -9.58232e-10 -2.27654e-09 -4.81235e-09 -1.63088e-09 -1.30812e-09 -2.78325e-09 -9.58219e-10 -7.73091 5.47488 -0.417314 -1.30811e-09 -2.78325e-09 -9.58231e-10 -2.90554 0.965183 -0.102902 -1.30812e-09 -2.78325e-09 -9.58226e-10 -10.2786 0.731801 -0.0259123 -1.30811e-09 -2.78325e-09 -9.58232e-10 -2.22167 -0.733487 0.20892 -2.03217e-16 0.0 -3.88251e-19 -3.15843 -10.6529 -0.3489 0.0132821 5.28964 0.0765871 -0.970837 0.140282 -5.85477 2.03217e-16 0.0 3.88251e-19 -3.15485 -2.77925 -1.211 -0.046489 8.03335 -0.203226 0.508044 -3.91767 -0.142956
12.0849 83.792 -173.473 3.2424 11.3382 -1.4124 -4.60512 12.5478 -1.99292 2.32592 -5.5079 -0.590565 0.587339 5.22007 3.35784 -4.54378 6.86828 7.02582 -0.0 0.0 0.0 -0.0 0.0 0.0 1.71735e-14 -1.157e-13 3.23423e-13 41.3407 0.426941 -4.33797 -10.9659 -6.06136 17.716 -0.000283894 -0.845356 -0.118809 -2.61861e-11 2.42833e-09 2.5061e-09 -4.67226e-11 4.21178e-09 4.34237e-09 -2.61809e-11 2.42833e-09 2.50609e-09 7.73091 5.47488 0.417314 -2.61855e-11 2.42833e-09 2.5061e-09 2.90554 0.965183 0.102902 -2.61777e-11 2.42833e-09 2.5061e-09 10.2786 0.731801 0.0259123 -2.61898e-11 2.42833e-09 2.5061e-09 2.22167 -0.733487 -0.20892 1.6913e-14 -1.15699e-13 3.23152e-13 -38.2418 9.71173 -7.13156 10.0999 -5.32 -16.4525 0.0642549 13.6809 -1.92311 -2.69388e-09 -5.91743e-09 -2.0173e-09 -4.68911e-09 -1.02316e-08 -3.43321e-09 -2.69388e-09 -5.91743e-09 -2.01729e-09 -7.73091 5.47488 -0.417314 -2.69388e-09 -5.91744e-09 -2.0173e-09 -2.90554 0.965183 -0.102902 -2.69389e-09 -5.91744e-09 -2.01729e-09 -10.2786 0.731801 -0.0259123 -2.69387e-09 -5.91744e-09 -2.0173e-09 -2.22167 -0.733487 0.20892 -2.03217e-16 0.0 -3.88251e-19 -6.37472 -19.8409 -0.742178 -0.00608514 13.0192 0.242468 -2.35056 -3.81506 -12.1969 2.03217e-16 0.0 3.88251e-19 -5.09971 -0.0747954 -2.59354 -0.0684203 12.1512 -0.400401 0.51097 -9.33888 -0.202213
12.0205 83.7462 -172.967 3.2584 11.0501 -1.3447 -5.98461 18.2971 -3.01038 3.48452 -8.03325 -0.854109 0.655505 7.58938 4.92566 -7.20784 9.92291 10.339 -0.0 0.0 0.0 -0.0 0.0 0.0 3.10349e-14 -1.62958e-13 4.58674e-13 60.3173 0.652878 -6.32817 -14.7843 -8.37657 26.0249 -0.00160472 -1.25412 -0.17628 -4.96845e-11 3.47741e-09 3.53784e-09 -8.79549e-11 6.03111e-09 6.1301e-09 -4.96793e-11 3.47741e-09 3.53783e-09 7.73091 5.47488 0.417314 -4.96839e-11 3.4774e-09 3.53784e-09 2.90554 0.965183 0.102902 -4.96763e-11 3.47741e-09 3.53784e-09 10.2786 0.731801 0.0259123 -4.96881e-11 3.47741e-09 3.53784e-09 2.22167 -0.733487 -0.20892 3.07014e-14 -1.62957e-13 4.58416e-13 -55.0295 13.9538 -10.5284 13.7129 -7.38183 -24.0811 0.404428 19.6914 -2.85903 -3.7891e-09 -8.34948e-09 -2.87306e-09 -6.59607e-09 -1.44366e-08 -4.88984e-09 -3.7891e-09 -8.34948e-09 -2.87305e-09 -7.73091 5.47488 -0.417314 -3.7891e-09 -8.34948e-09 -2.87306e-09 -2.90554 0.965183 -0.102902 -3.7891e-09 -8.34948e-09 -2.87305e-09 -10.2786 0.731801 -0.0259123 -3.78909e-09 -8.34948e-09 -2.87306e-09 -2.22167 -0.733487 0.20892 -2.03217e-16 0.0 -3.88251e-19 -9.35804 -28.0505 -1.13504 -0.0634551 19.9049 0.403484 -4.3263 -7.1529 -17.9785 2.03217e-16 0.0 3.88251e-19 -6.71209 2.38165 -3.84104 -0.063044 15.7779 -0.583399 0.49897 -14.1567 -0.274589
12.038 83.6851 -172.497 3.5063 10.9377 -1.082 -6.80915 22.3247 -3.90788 4.31091 -9.80698 -1.07393 0.64338 9.20029 6.05427 -9.32541 11.9666 12.738 -0.0 0.0 0.0 -0.0 0.0 0.0 5.11284e-14 -1.74932e-13 5.05808e-13 73.5822 0.925885 -7.72198 -17.1064 -9.75717 32.045 -0.00320591 -1.61651 -0.227246 -2.20587e-10 3.97594e-09 3.83054e-09 -3.83425e-10 6.89478e-09 6.6373e-09 -2.20583e-10 3.97593e-09 3.83053e-09 7.73091 5.47488 0.417314 -2.20587e-10 3.97593e-09 3.83053e-09 2.90554 0.965183 0.102902 -2.20579e-10 3.97593e-09 3.83053e-09 10.2786 0.731801 0.0259123 -2.20591e-10 3.97594e-09 3.83053e-09 2.22167 -0.733487 -0.20892 5.07521e-14 -1.74931e-13 5.05559e-13 -66.7603 16.5278 -12.8427 15.8625 -8.56017 -29.383 0.694383 22.9748 -3.41588 -4.15795e-09 -9.02618e-09 -3.22055e-09 -7.23903e-09 -1.56061e-08 -5.48222e-09 -4.15795e-09 -9.02618e-09 -3.22054e-09 -7.73091 5.47488 -0.417314 -4.15795e-09 -9.02619e-09 -3.22055e-09 -2.90554 0.965183 -0.102902 -4.15796e-09 -9.02619e-09 -3.22054e-09 -10.2786 0.731801 -0.0259123 -4.15794e-09 -9.02618e-09 -3.22055e-09 -2.22167 -0.733487 0.20892 -2.03217e-16 0.0 -3.88251e-19 -11.4951 -33.8182 -1.41569 -0.128539 24.6813 0.528748 -6.13767 -9.32172 -22.1808 2.03217e-16 0.0 3.88251e-19 -7.73558 4.22663 -4.74537 -0.0449979 18.177 -0.71664 0.466916 -17.4659 -0.374763
12.006 83.6095 -171.989 3.6142 10.743 -0.8364 -7.05132 23.963 -4.59216 4.69978 -10.5296 -1.23968 0.664636 9.76488 6.55174 -10.3259 12.6863 13.7863 -0.0 0.0 0.0 -0.0 0.0 0.0 8.79672e-14 -1.29459e-13 4.05055e-13 78.8357 1.29509 -8.27313 -18.0687 -10.3577 34.7496 -0.00465804 -1.90773 -0.268218 -6.69222e-10 3.53268e-09 2.88108e-09 -1.15776e-09 6.12363e-09 4.99231e-09 -6.69219e-10 3.53268e-09 2.88107e-09 7.73091 5.47488 0.417314 -6.69222e-10 3.53268e-09 2.88108e-09 2.90554 0.965183 0.102902 -6.69214e-10 3.53268e-09 2.88108e-09 10.2786 0.731801 0.0259123 -6.69225e-10 3.53268e-09 2.88107e-09 2.22167 -0.733487 -0.20892 8.75911e-14 -1.29458e-13 4.04807e-13 -71.9896 16.9184 -13.4502 16.5625 -8.89416 -31.3007 0.694916 22.5303 -3.34719 -3.35161e-09 -6.75262e-09 -2.83271e-09 -5.83723e-09 -1.16731e-08 -4.82644e-09 -3.35161e-09 -6.75262e-09 -2.8327e-09 -7.73091 5.47488 -0.417314 -3.35161e-09 -6.75262e-09 -2.83271e-09 -2.90554 0.965183 -0.102902 -3.35162e-09 -6.75262e-09 -2.83271e-09 -10.2786 0.731801 -0.0259123 -3.3516e-09 -6.75262e-09 -2.83272e-09 -2.22167 -0.733487 0.20892 -2.03217e-16 0.0 -3.88251e-19 -12.2914 -36.149 -1.41966 -0.159733 26.4902 0.584152 -7.03437 -10.1738 -24.0931 2.03217e-16 0.0 3.88251e-19 -8.02517 5.23595 -5.18557 -0.0353793 18.844 -0.770808 0.404797 -18.6729 -0.542432
